<svg width="164" height="58" viewBox="0 0 164 58" fill="none" xmlns="http://www.w3.org/2000/svg">
<path d="M4 10.4286C4 6.32588 6.94078 3 10.5684 3H153.432C157.059 3 160 6.32589 160 10.4286V47.5714C160 51.6741 157.059 55 153.432 55H10.5684C6.94078 55 4 51.6741 4 47.5714V10.4286Z" fill="white"/>
<path fill-rule="evenodd" clip-rule="evenodd" d="M153.432 4H10.5684C7.60517 4 5 6.75896 5 10.4286V47.5714C5 51.241 7.60517 54 10.5684 54H153.432C156.395 54 159 51.241 159 47.5714V10.4286C159 6.75896 156.395 4 153.432 4ZM10.5684 3C6.94078 3 4 6.32588 4 10.4286V47.5714C4 51.6741 6.94078 55 10.5684 55H153.432C157.059 55 160 51.6741 160 47.5714V10.4286C160 6.32588 157.059 3 153.432 3H10.5684Z" fill="#A6A6A6"/>
<path d="M17.8173 44.1622C20.3329 46.6426 24.3817 46.6426 32.4793 46.6426H33.9107C42.0083 46.6426 46.0571 46.6426 48.5727 44.1622C51.0882 41.6819 51.0882 37.6897 51.0882 29.7054V28.294C51.0882 20.3097 51.0882 16.3176 48.5727 13.8372C46.0571 11.3569 42.0083 11.3569 33.9107 11.3569H32.4793C24.3817 11.3569 20.3329 11.3569 17.8173 13.8372C15.3018 16.3176 15.3018 20.3097 15.3018 28.294V29.7054C15.3018 37.6897 15.3018 41.6819 17.8173 44.1622Z" fill="#0077FF"/>
<path fill-rule="evenodd" clip-rule="evenodd" d="M42.9297 34.81L40.5117 34.2144C40.2205 34.132 40.0149 33.8737 40.0046 33.5735L39.7028 24.7984C39.6155 23.637 38.7411 22.7132 37.8274 22.4412C37.7761 22.4259 37.7213 22.4465 37.6909 22.49C37.66 22.5343 37.672 22.5955 37.715 22.6283C37.9407 22.8006 38.5617 23.3626 38.5617 24.332L38.5599 35.8052C38.5599 36.913 37.4982 37.7255 36.4031 37.4558L33.9477 36.851C33.6755 36.7571 33.4863 36.5071 33.4764 36.2187L33.1747 27.443C33.0874 26.2816 32.213 25.3579 31.2993 25.0858C31.248 25.0706 31.1932 25.0911 31.1628 25.1346C31.132 25.1789 31.1439 25.2401 31.1869 25.273C31.4126 25.4452 32.0336 26.0072 32.0336 26.9766L32.0318 36.5401L32.0332 36.5403V38.4509C32.0332 39.5587 30.9714 40.3713 29.8763 40.1015L22.941 38.3933C21.9768 38.1558 21.3008 37.3054 21.3008 36.33L21.3008 24.8389C21.3008 23.7311 22.3625 22.9186 23.4576 23.1883L27.8276 24.2647V22.1932C27.8276 21.0854 28.8893 20.2728 29.9844 20.5426L34.3541 21.6189V19.5474C34.3541 18.4396 35.4158 17.627 36.511 17.8968L43.4463 19.605C44.4105 19.8425 45.0865 20.6929 45.0865 21.6683V33.1594C45.0865 34.2672 44.0248 35.0797 42.9297 34.81Z" fill="white"/>
<path d="M72.0475 43.8571H69.3127L64.9731 37.8846H62.6903V43.8571H60.3623V28.1457H65.9676C67.0525 28.1457 68.0244 28.3537 68.8833 28.7697C69.7421 29.1857 70.4051 29.7651 70.8722 30.508C71.3544 31.236 71.5955 32.0754 71.5955 33.0263C71.5955 34.2149 71.2263 35.2326 70.488 36.0794C69.7497 36.9114 68.7627 37.4611 67.5271 37.7286L72.0475 43.8571ZM62.6903 30.2629V35.7897H65.9676C66.9319 35.7897 67.708 35.5371 68.2956 35.032C68.8983 34.512 69.1997 33.8434 69.1997 33.0263C69.1997 32.2091 68.8983 31.548 68.2956 31.0429C67.708 30.5229 66.9319 30.2629 65.9676 30.2629H62.6903Z" fill="black"/>
<path d="M78.2248 44.08C77.396 44.08 76.6502 43.8794 75.9872 43.4783C75.3242 43.0623 74.8043 42.4977 74.4276 41.7846C74.0509 41.0566 73.8626 40.2394 73.8626 39.3331V32.3354H76.0776V39.1549C76.0776 40.0314 76.3262 40.7446 76.8234 41.2943C77.3207 41.844 77.9611 42.1189 78.7446 42.1189C79.5583 42.1189 80.2363 41.8366 80.7788 41.272C81.3212 40.7074 81.5925 40.0017 81.5925 39.1549V32.3354H83.8075V43.8571H82.2253L81.7055 42.1189C81.3288 42.7429 80.8315 43.2257 80.2137 43.5674C79.611 43.9091 78.948 44.08 78.2248 44.08Z" fill="black"/>
<path d="M92.0648 44.08C90.6032 44.08 89.3299 43.7086 88.245 42.9657C87.1752 42.208 86.4444 41.1829 86.0526 39.8903L88.2902 39.5337C88.7272 40.3657 89.2471 40.9823 89.8498 41.3834C90.4525 41.7697 91.1908 41.9629 92.0648 41.9629C92.9538 41.9629 93.677 41.7697 94.2346 41.3834C94.7921 40.9823 95.0708 40.44 95.0708 39.7566C95.0708 39.2514 94.9126 38.828 94.5962 38.4863C94.2948 38.1446 93.9106 37.8697 93.4435 37.6617C92.9764 37.4537 92.3661 37.2234 91.6127 36.9709C90.6032 36.644 89.7744 36.3171 89.1265 35.9903C88.4786 35.6634 87.9286 35.2029 87.4766 34.6086C87.0396 33.9994 86.8211 33.2269 86.8211 32.2909C86.8211 31.4143 87.0396 30.6491 87.4766 29.9954C87.9286 29.3269 88.5464 28.8143 89.3299 28.4577C90.1135 28.1011 90.9874 27.9229 91.9518 27.9229C93.2928 27.9229 94.4455 28.272 95.4099 28.9703C96.3742 29.6537 97.0598 30.5971 97.4667 31.8006L95.2743 32.1571C94.9729 31.4737 94.5435 30.9537 93.9859 30.5971C93.4284 30.2257 92.773 30.04 92.0196 30.04C91.2059 30.04 90.5354 30.2331 90.008 30.6194C89.4806 30.9909 89.2169 31.5034 89.2169 32.1571C89.2169 32.6474 89.3676 33.0634 89.669 33.4051C89.9854 33.7469 90.3696 34.0217 90.8217 34.2297C91.2888 34.4377 91.9066 34.6754 92.675 34.9429C93.6544 35.2697 94.4681 35.604 95.116 35.9457C95.779 36.2726 96.3365 36.7406 96.7886 37.3497C97.2406 37.9589 97.4667 38.724 97.4667 39.6451C97.4667 40.5366 97.2256 41.3166 96.7434 41.9851C96.2763 42.6537 95.6284 43.1737 94.7996 43.5451C93.9859 43.9017 93.0743 44.08 92.0648 44.08Z" fill="black"/>
<path d="M106.823 41.9406L106.62 43.8571H104.563C103.342 43.8571 102.416 43.56 101.783 42.9657C101.15 42.3714 100.833 41.5171 100.833 40.4029V34.2743H98.8219V32.3354H100.833L101.444 28.9926H103.048V32.3354H106.62V34.2743H103.048V40.4029C103.048 41.428 103.553 41.9406 104.563 41.9406H106.823Z" fill="black"/>
<path d="M114.21 44.08C113.019 44.08 111.957 43.8274 111.023 43.3223C110.089 42.8171 109.358 42.1114 108.83 41.2051C108.303 40.2989 108.039 39.2663 108.039 38.1074C108.039 36.9486 108.303 35.916 108.83 35.0097C109.358 34.1034 110.089 33.3977 111.023 32.8926C111.957 32.3726 113.019 32.1126 114.21 32.1126C115.4 32.1126 116.462 32.3726 117.396 32.8926C118.331 33.3977 119.061 34.1034 119.589 35.0097C120.116 35.916 120.38 36.9486 120.38 38.1074C120.38 39.2663 120.116 40.2989 119.589 41.2051C119.061 42.1114 118.331 42.8171 117.396 43.3223C116.462 43.8274 115.4 44.08 114.21 44.08ZM114.21 42.0743C115.355 42.0743 116.281 41.7103 116.99 40.9823C117.713 40.2543 118.075 39.296 118.075 38.1074C118.075 36.9189 117.713 35.9606 116.99 35.2326C116.281 34.4897 115.355 34.1183 114.21 34.1183C113.064 34.1183 112.138 34.4897 111.43 35.2326C110.721 35.9606 110.367 36.9189 110.367 38.1074C110.367 39.2811 110.721 40.2394 111.43 40.9823C112.138 41.7103 113.064 42.0743 114.21 42.0743Z" fill="black"/>
<path d="M122.755 43.8571V32.3354H124.36L124.835 33.9846C125.181 33.4051 125.611 32.9891 126.123 32.7366C126.635 32.4691 127.246 32.3354 127.954 32.3354H128.496L128.677 34.4303H127.411C126.598 34.4303 125.987 34.6606 125.581 35.1211C125.174 35.5817 124.97 36.2057 124.97 36.9931V43.8571H122.755Z" fill="black"/>
<path d="M141.34 38.0183C141.34 38.3154 141.333 38.5457 141.318 38.7091H131.666C131.787 39.7343 132.194 40.5514 132.887 41.1606C133.58 41.7697 134.462 42.0743 135.531 42.0743C136.27 42.0743 136.925 41.9331 137.498 41.6509C138.085 41.3537 138.53 40.9674 138.831 40.492L140.911 40.8263C140.459 41.8663 139.728 42.6686 138.718 43.2331C137.724 43.7977 136.616 44.08 135.396 44.08C134.236 44.08 133.196 43.8274 132.277 43.3223C131.358 42.8023 130.642 42.0891 130.13 41.1829C129.617 40.2766 129.361 39.2514 129.361 38.1074C129.361 36.9486 129.617 35.916 130.13 35.0097C130.642 34.1034 131.35 33.3977 132.254 32.8926C133.158 32.3726 134.19 32.1126 135.351 32.1126C136.496 32.1126 137.52 32.3726 138.424 32.8926C139.344 33.3977 140.059 34.1034 140.572 35.0097C141.084 35.9011 141.34 36.904 141.34 38.0183ZM135.351 34.0514C134.462 34.0514 133.693 34.3114 133.045 34.8314C132.412 35.3514 131.99 36.0497 131.779 36.9263H138.922C138.726 36.0646 138.304 35.3737 137.656 34.8537C137.023 34.3189 136.255 34.0514 135.351 34.0514Z" fill="black"/>
<path d="M63.6559 22.1199C62.8639 22.1199 62.1519 21.9359 61.5199 21.5679C60.8879 21.1919 60.3919 20.6719 60.0319 20.0079C59.6799 19.3439 59.5039 18.5959 59.5039 17.7639C59.5039 16.9319 59.6799 16.1879 60.0319 15.5319C60.3919 14.8679 60.8839 14.3519 61.5079 13.9839C62.1399 13.6079 62.8519 13.4199 63.6439 13.4199C64.4999 13.4199 65.2599 13.6359 65.9239 14.0679C66.5959 14.4919 67.0759 15.0679 67.3639 15.7959L66.1399 15.9879C65.9159 15.5399 65.5839 15.1919 65.1439 14.9439C64.7119 14.6879 64.2239 14.5599 63.6799 14.5599C63.1199 14.5599 62.6199 14.6959 62.1799 14.9679C61.7479 15.2399 61.4079 15.6199 61.1599 16.1079C60.9199 16.5879 60.7999 17.1399 60.7999 17.7639C60.7999 18.3959 60.9199 18.9559 61.1599 19.4439C61.4079 19.9239 61.7519 20.2999 62.1919 20.5719C62.6319 20.8439 63.1359 20.9799 63.7039 20.9799C64.2639 20.9799 64.7599 20.8519 65.1919 20.5959C65.6319 20.3319 65.9679 19.9639 66.1999 19.4919L67.4239 19.6839C67.1199 20.4279 66.6279 21.0199 65.9479 21.4599C65.2679 21.8999 64.5039 22.1199 63.6559 22.1199Z" fill="black"/>
<path d="M73.6941 21.9999H72.1461L69.8541 19.4319H69.4821V21.9999H68.3061V15.7959H69.4821V18.3039H69.8421L72.0381 15.7959H73.4541L70.7901 18.7959L73.6941 21.9999Z" fill="black"/>
<path d="M76.4907 15.6759C77.2587 15.6759 77.8627 15.9279 78.3027 16.4319C78.7507 16.9279 78.9747 17.6239 78.9747 18.5199V21.9999H78.1347L77.8587 21.0279C77.6587 21.3399 77.3907 21.5999 77.0547 21.8079C76.7187 22.0159 76.3147 22.1199 75.8427 22.1199C75.4267 22.1199 75.0547 22.0359 74.7267 21.8679C74.3987 21.6999 74.1427 21.4679 73.9587 21.1719C73.7747 20.8679 73.6827 20.5279 73.6827 20.1519C73.6827 19.5679 73.9147 19.0999 74.3787 18.7479C74.8427 18.3959 75.5147 18.2199 76.3947 18.2199H77.7987C77.7667 17.7319 77.6307 17.3559 77.3907 17.0919C77.1507 16.8199 76.8307 16.6839 76.4307 16.6839C76.1267 16.6839 75.8587 16.7559 75.6267 16.8999C75.3947 17.0439 75.2187 17.2319 75.0987 17.4639L74.0067 17.2839C74.1667 16.7879 74.4747 16.3959 74.9307 16.1079C75.3867 15.8199 75.9067 15.6759 76.4907 15.6759ZM76.0947 21.1239C76.5987 21.1239 77.0067 20.9599 77.3187 20.6319C77.6387 20.2959 77.7987 19.8359 77.7987 19.2519V19.1799H76.4307C75.3907 19.1799 74.8707 19.4919 74.8707 20.1159C74.8707 20.4199 74.9827 20.6639 75.2067 20.8479C75.4307 21.0319 75.7267 21.1239 76.0947 21.1239Z" fill="black"/>
<path d="M83.5831 19.7439C83.3911 19.8319 83.1631 19.8999 82.8991 19.9479C82.6351 19.9959 82.3751 20.0199 82.1191 20.0199C81.3751 20.0199 80.8031 19.8119 80.4031 19.3959C80.0031 18.9799 79.8031 18.3919 79.8031 17.6319V15.7959H80.9791V17.6319C80.9791 18.5199 81.4071 18.9639 82.2631 18.9639C82.7831 18.9639 83.2231 18.8719 83.5831 18.6879V15.7959H84.7591V21.9999H83.5831V19.7439Z" fill="black"/>
<path d="M88.5849 15.6759C89.3529 15.6759 89.9569 15.9279 90.3969 16.4319C90.8449 16.9279 91.0689 17.6239 91.0689 18.5199V21.9999H90.2289L89.9529 21.0279C89.7529 21.3399 89.4849 21.5999 89.1489 21.8079C88.8129 22.0159 88.4089 22.1199 87.9369 22.1199C87.5209 22.1199 87.1489 22.0359 86.8209 21.8679C86.4929 21.6999 86.2369 21.4679 86.0529 21.1719C85.8689 20.8679 85.7769 20.5279 85.7769 20.1519C85.7769 19.5679 86.0089 19.0999 86.4729 18.7479C86.9369 18.3959 87.6089 18.2199 88.4889 18.2199H89.8929C89.8609 17.7319 89.7249 17.3559 89.4849 17.0919C89.2449 16.8199 88.9249 16.6839 88.5249 16.6839C88.2209 16.6839 87.9529 16.7559 87.7209 16.8999C87.4889 17.0439 87.3129 17.2319 87.1929 17.4639L86.1009 17.2839C86.2609 16.7879 86.5689 16.3959 87.0249 16.1079C87.4809 15.8199 88.0009 15.6759 88.5849 15.6759ZM88.1889 21.1239C88.6929 21.1239 89.1009 20.9599 89.4129 20.6319C89.7329 20.2959 89.8929 19.8359 89.8929 19.2519V19.1799H88.5249C87.4849 19.1799 86.9649 19.4919 86.9649 20.1159C86.9649 20.4199 87.0769 20.6639 87.3009 20.8479C87.5249 21.0319 87.8209 21.1239 88.1889 21.1239Z" fill="black"/>
<path d="M94.1173 21.9999H92.3773V15.7959H93.5173V20.6799H93.6973L96.2053 15.7959H97.9453V21.9999H96.8053V17.1279H96.6253L94.1173 21.9999ZM95.1733 14.9919C94.6533 14.9919 94.2173 14.8559 93.8653 14.5839C93.5213 14.3039 93.3173 13.8879 93.2533 13.3359H94.2133C94.2533 13.5919 94.3533 13.7879 94.5133 13.9239C94.6813 14.0519 94.9013 14.1159 95.1733 14.1159C95.4453 14.1159 95.6613 14.0519 95.8213 13.9239C95.9893 13.7879 96.0893 13.5919 96.1213 13.3359H97.0933C97.0213 13.8879 96.8093 14.3039 96.4573 14.5839C96.1133 14.8559 95.6853 14.9919 95.1733 14.9919Z" fill="black"/>
<path d="M102.033 21.9999H100.857V16.8759H98.7092V15.7959H104.181V16.8759H102.033V21.9999Z" fill="black"/>
<path d="M110.729 18.8559C110.729 19.0159 110.725 19.1399 110.717 19.2279H105.593C105.657 19.7799 105.873 20.2199 106.241 20.5479C106.609 20.8759 107.077 21.0399 107.645 21.0399C108.037 21.0399 108.385 20.9639 108.689 20.8119C109.001 20.6519 109.237 20.4439 109.397 20.1879L110.501 20.3679C110.261 20.9279 109.873 21.3599 109.337 21.6639C108.809 21.9679 108.221 22.1199 107.573 22.1199C106.957 22.1199 106.405 21.9839 105.917 21.7119C105.429 21.4319 105.049 21.0479 104.777 20.5599C104.505 20.0719 104.369 19.5199 104.369 18.9039C104.369 18.2799 104.505 17.7239 104.777 17.2359C105.049 16.7479 105.425 16.3679 105.905 16.0959C106.385 15.8159 106.933 15.6759 107.549 15.6759C108.157 15.6759 108.701 15.8159 109.181 16.0959C109.669 16.3679 110.049 16.7479 110.321 17.2359C110.593 17.7159 110.729 18.2559 110.729 18.8559ZM107.549 16.7199C107.077 16.7199 106.669 16.8599 106.325 17.1399C105.989 17.4199 105.765 17.7959 105.653 18.2679H109.445C109.341 17.8039 109.117 17.4319 108.773 17.1519C108.437 16.8639 108.029 16.7199 107.549 16.7199Z" fill="black"/>
<path d="M116.009 21.9999H114.269V15.7959H115.409V20.6799H115.589L118.097 15.7959H119.837V21.9999H118.697V17.1279H118.517L116.009 21.9999Z" fill="black"/>
<path d="M124.597 18.8319C124.925 18.9279 125.197 19.1039 125.413 19.3599C125.629 19.6079 125.737 19.9159 125.737 20.2839C125.737 20.6279 125.637 20.9399 125.437 21.2199C125.237 21.4919 124.949 21.7119 124.573 21.8799C124.205 22.0399 123.777 22.1199 123.289 22.1199C122.633 22.1199 122.069 21.9679 121.597 21.6639C121.125 21.3519 120.813 20.9359 120.661 20.4159L121.753 20.2359C122.017 20.8119 122.525 21.0999 123.277 21.0999C123.693 21.0999 124.009 21.0239 124.225 20.8719C124.449 20.7119 124.561 20.4919 124.561 20.2119C124.561 19.9639 124.457 19.7639 124.249 19.6119C124.049 19.4599 123.725 19.3839 123.277 19.3839H122.461V18.3519H123.277C123.661 18.3519 123.953 18.2799 124.153 18.1359C124.361 17.9919 124.465 17.7999 124.465 17.5599C124.465 17.3039 124.353 17.0959 124.129 16.9359C123.913 16.7759 123.645 16.6959 123.325 16.6959C123.013 16.6959 122.733 16.7719 122.485 16.9239C122.237 17.0759 122.049 17.2839 121.921 17.5479L120.829 17.3559C121.013 16.8199 121.329 16.4079 121.777 16.1199C122.233 15.8239 122.761 15.6759 123.361 15.6759C123.793 15.6759 124.181 15.7519 124.525 15.9039C124.877 16.0559 125.149 16.2679 125.341 16.5399C125.541 16.8119 125.641 17.1159 125.641 17.4519C125.641 17.7959 125.545 18.0879 125.353 18.3279C125.161 18.5679 124.909 18.7359 124.597 18.8319Z" fill="black"/>
</svg>
